<svg id="Layer_1" data-name="Layer 1" xmlns="http://www.w3.org/2000/svg" viewBox="0 0 1853.82 506.42"><defs><style>.cls-1{fill:#424242;}.cls-2{fill:#fa6501;}.cls-3{fill:#4bbe57;}.cls-4{fill:#020202;}.cls-5{font-size:57.65px;font-family:Kanit-Regular, Kanit;letter-spacing:0.2em;}.cls-6{letter-spacing:0.17em;}.cls-7{letter-spacing:0.2em;}.cls-8{letter-spacing:0.18em;}.cls-9{letter-spacing:0.09em;}</style></defs><path class="cls-1" d="M287.5,447.22c-42-13-75.68-19.46-101.72-19.46-31.53,0-47.1,10.34-47.1,31.54,0,11.67,7.79,20.4,23.75,25.9,7.39,2.55,23.35,6.44,48,11.27,34.21,7,59.31,16.51,75.28,29q24.75,18.72,24.69,57.16c0,61.87-46.7,93.94-120.64,93.94-42,0-83.87-8.19-125.47-25.1L79.1,593.89c39.86,16,77,24.7,112.05,25.1,36.77,0,55.42-10.33,55.42-30.73,0-9.53-4.69-16.37-11.67-21.2-3.49-3.49-13-7-18.12-8.59-5.23-2.15-18.11-4.7-23.75-6-5.23-1.34-20.8-3.89-26.44-5.23-33.28-7-57.56-16.91-72.19-29.39s-22-31.14-22-55.83c0-27.24,10.33-49.25,31.13-65.35,21.21-16.5,48.85-24.69,83.87-24.69,41.07,0,79.58,6.44,115.54,19.86Z" transform="translate(-64.34 -269.67)"/><path class="cls-1" d="M350.3,396.5c0-22,16.51-38.52,38.52-38.52a38.09,38.09,0,0,1,38.51,38.52c0,21.2-17.31,37.57-38.51,37.57C366.68,434.21,350.3,417.7,350.3,396.5ZM419,670H358.89V462.79H419Z" transform="translate(-64.34 -269.67)"/><path class="cls-1" d="M636.67,669.45a262.13,262.13,0,0,1-59.31,7c-50.59,0-79.58-30.32-79.58-83.87V516.33H455V462.65h42.8V388.71H557.9v73.94h65.35v53.68H557.9v70c0,24.29,10.87,36.37,32.48,36.37A287.14,287.14,0,0,0,631,619.66Z" transform="translate(-64.34 -269.67)"/><path class="cls-1" d="M842.52,480.9c19.46,16.91,29,38.52,29.39,65.36a245.77,245.77,0,0,1-3.89,42H723.09c8.19,23.75,28.18,36,58.78,36,14.76,0,39.32-3.49,73.54-10.87l8.18,47.1c-33.28,10.87-61.46,16-83.47,16-38.51,0-67.9-10.33-89.1-30.73-20.8-20.8-31.13-47.1-31.13-79.57,0-33.28,10.33-59.72,30.73-80,20.8-20.4,47.1-30.33,78.77-30.33C798.78,455.81,823.07,464,842.52,480.9Zm-122,64.42h97.83c-1.34-25.5-20.4-42.81-47.64-42.81C744.3,502.51,726.18,519,720.54,545.32Z" transform="translate(-64.34 -269.67)"/><path class="cls-2" d="M1058,681.87q-71,0-106.85-30.53t-35.82-84.55V552.11a81,81,0,0,1,10-39,218.71,218.71,0,0,1,23.19-34.64q13.22-16.14,23.2-29.06t10-22.31q0-11.16-9.4-11.16a18.73,18.73,0,0,0-7.92,1.76,23.32,23.32,0,0,0-6.75,4.7v24.07H907.71V359H960v16.44a83.41,83.41,0,0,1,20-11.74q11.15-4.69,27.59-4.7,47,0,47,48.14a86.31,86.31,0,0,1-9.1,39.64,252.33,252.33,0,0,1-20.84,34A282,282,0,0,0,1003.71,514a77.16,77.16,0,0,0-9.11,37v12.92q0,56.35,63.41,56.36,64.59,0,64.59-58.71v-37q0-22.31-7.64-31.71t-27-9.39h-16.44l3.52-55.19h10.57q19.37,0,28.18-10t8.81-31.71V353.08h79.26v31.7q0,27-8.22,43.74t-32.29,27.3Q1186,467,1193.93,484.3t7.93,43.15V558q0,57-38.16,90.42T1058,681.87Z" transform="translate(-64.34 -269.67)"/><path class="cls-2" d="M1307.33,678.94a171.09,171.09,0,0,1-36.19-3.62,158,158,0,0,1-28.38-8.54V584.56h66.31l1.73,28.66h-31v31.56a77.61,77.61,0,0,0,13.18,2.75,111,111,0,0,0,14.62,1q23.73,0,33.29-11.29t9.56-38.8q0-19.68-5.07-30.83a29.78,29.78,0,0,0-16.5-15.78q-11.45-4.64-31.13-4.63a194.63,194.63,0,0,0-26.49,1.88,158.36,158.36,0,0,0-26.49,5.93V525.78a167.65,167.65,0,0,1,29.82-6.66,240,240,0,0,1,32.72-2.32q42.27,0,61.23,21t19,60.65q0,38.81-19,59.65T1307.33,678.94Z" transform="translate(-64.34 -269.67)"/><path class="cls-2" d="M1416.19,676.05v-49.8a58.34,58.34,0,0,1,4.49-23.6q4.48-10.27,17.8-14.33L1409,580.5V543.15q11.86-10.12,31.71-18.24T1486,516.8q23.44,0,40.1,6.09t25.48,20.26q8.82,14.19,8.83,38.51v94.39h-39.09V580.79q0-18.24-8.54-25.91t-28.81-7.67a72.51,72.51,0,0,0-23.89,3.76q-10.85,3.76-17.51,9.55v4.06l32.14,8.68V597q-11.6,2.9-15.49,9.41t-3.91,20.12v49.51Z" transform="translate(-64.34 -269.67)"/><path class="cls-2" d="M1594.83,676.05v-97q0-28.37,17.52-45.31t56.31-16.94q38.8,0,56.17,16.94t17.37,45.31v97h-39.08V576.16q0-14.48-9.12-21.72t-25.34-7.23q-34.74,0-34.74,28.95v28.08a52,52,0,0,1,12.3-6.66,41.55,41.55,0,0,1,14.91-2.6H1680l1.16,31h-20.84a44.66,44.66,0,0,0-14.48,2.17,43.36,43.36,0,0,0-11.87,6.23v41.69Z" transform="translate(-64.34 -269.67)"/><path class="cls-2" d="M1835.43,678.94a171.15,171.15,0,0,1-36.19-3.62,157.66,157.66,0,0,1-28.37-8.54V584.56h66.3l1.74,28.66h-31v31.56a77.27,77.27,0,0,0,13.17,2.75,111,111,0,0,0,14.62,1q23.74,0,33.3-11.29t9.55-38.8q0-19.68-5.07-30.83a29.78,29.78,0,0,0-16.5-15.78q-11.45-4.64-31.12-4.63a194.66,194.66,0,0,0-26.5,1.88,158.36,158.36,0,0,0-26.49,5.93V525.78a167.85,167.85,0,0,1,29.82-6.66,240.11,240.11,0,0,1,32.72-2.32q42.27,0,61.24,21t19,60.65q0,38.81-19,59.65T1835.43,678.94Z" transform="translate(-64.34 -269.67)"/><path class="cls-3" d="M1887,406.13V327.88c0-17.48.08-35-.07-52.44,0-5.22,2.33-4.45,13.88-2.72a6.3,6.3,0,0,0,1.68,0c13-1.64,15.68-2.87,15.67,3.24q-.18,98.92-.09,197.84c0,4.11-.08,8.22,0,12.32s-15.86,3.31-15.86,3.31l-15.44.17a15.28,15.28,0,0,0-1.14-4q-22-58-44-116a128.23,128.23,0,0,0-6.39-14.83h-.06c0,44.85,0,89.7.11,134.55a.16.16,0,0,1-.18.16c-8.86-.49-17.78-.52-26.66-.21-3.41.12-4.46-.7-4.44-4.31.18-24.1.1-48.2.1-72.31q0-68.33-.09-136.66c0-6.42,3.13-4.62,17-3.17a3.18,3.18,0,0,0,1-.05c10-2,12.8-2.35,14.77,2.89q23.73,63.08,47.74,126.07c.59,1.55,1.21,3.1,1.82,4.65Z" transform="translate(-64.34 -269.67)"/><path class="cls-4" d="M1571.52,380.52c-.47,20.23.55,40.47-.6,60.7-1.68,29.57-22,49-51.69,49.53-18.67.35-34.11-6-45.79-20.95-7.17-9.15-8.92-20-9.06-31-.41-31.2-.3-62.41-.28-93.61,0-10.17-.25-20.34.81-30.51,2.27-21.92,14.7-35.43,34.9-42.09,22.66-7.47,46.69-.36,61.06,17,7.15,8.62,9.29,18.8,10,29.46C1572.18,339.52,1571,360,1571.52,380.52Zm-30.84,0c0-2.74,0-5.48,0-8.22-.17-17.35.39-34.71-.31-52.06-.23-5.57-2.12-10.51-6.38-14.23-7.64-6.67-16.49-7.54-25.65-4.24-8.95,3.23-13.09,10.26-13.49,19.62-.09,2.08-.1,4.17-.1,6.26q0,43.67,0,87.32c0,8.09,0,16.18.12,24.27.14,7.32,2.84,13.44,9.11,17.66,12.54,8.46,36.2,3.65,36.51-17.65,0-2.09.18-4.17.18-6.26Q1540.7,406.74,1540.68,380.5Z" transform="translate(-64.34 -269.67)"/><path class="cls-3" d="M1712.58,358.28q0,38.21,0,76.41c0,4.87.36,9.63,2.3,14.19,3.36,7.89,9.33,11.87,18,11.91s14.75-3.73,18.22-11.67c2.08-4.76,2.45-9.8,2.44-14.94,0-52.12,0-104.24-.11-156.36,0-3.92.85-5.15,4.89-4.94,7,.37,14.11.32,21.15,0,3.72-.17,4.8.78,4.79,4.65-.15,41.93-.09,83.86-.1,125.79,0,11.63.12,23.26-.18,34.88a63.14,63.14,0,0,1-5.33,24.3c-7.75,17.46-21.45,26.38-40.16,28A56.44,56.44,0,0,1,1712,487c-16.06-6.53-24.32-19.39-28.21-35.61-1.66-6.9-1.87-14-1.87-21q0-76.62-.07-153.22c0-3.12.63-4.37,4-4.25,7.57.25,15.16.25,22.73,0,3.41-.12,4.07,1.12,4.05,4.25C1712.53,304.2,1712.58,331.24,1712.58,358.28Z" transform="translate(-64.34 -269.67)"/><path class="cls-4" d="M1341.78,425.19c0,11.25-.74,22.37-4.26,33.22-5.19,16-16,26-32.1,30.09-14.36,3.63-28.82,3.73-42.65-2.08-16.37-6.87-24.83-19.95-27.38-37.23a136.63,136.63,0,0,1-1-18c0-1.84.5-2.48,2.42-2.46q12.93.14,25.86,0c1.88,0,2.49.57,2.46,2.45a64.19,64.19,0,0,0,.52,11.33c1.81,11.33,7,16.5,18.23,18,14.67,2,25.33-5.77,26.63-19.59a133,133,0,0,0,.37-20.74c-.07-1.18-.18-2.35-.24-3.52-.52-11.43-5.54-19.56-16.76-23.39-7.88-2.69-15.66-5.68-23.5-8.48a102.07,102.07,0,0,1-11.76-5.25c-14.08-7.18-20.19-19.46-21.69-34.42-1.14-11.44-1.83-23,.41-34.36,5.15-26.11,25.1-41.38,52.74-40.83,29.68.59,48.71,19.25,50.24,49.3.18,3.51,0,7.05.17,10.57.1,2-.41,2.7-2.55,2.67-8.49-.12-17-.14-25.47,0-2.39,0-2.78-.89-2.68-2.93a62.17,62.17,0,0,0-.58-10.55c-1.46-11.66-8.72-18.76-19.59-19-12.36-.23-20.18,6.27-22,18.12a65.1,65.1,0,0,0,.8,23.74c1.43,6.68,5,11.8,11.52,14.83,8.53,4,17.44,6.86,26.26,10,13.77,4.91,25.21,12.37,31.23,26.43,3.58,8.37,3.8,17.25,4.34,26.09C1341.89,421.27,1341.78,423.23,1341.78,425.19Z" transform="translate(-64.34 -269.67)"/><path class="cls-4" d="M1358.49,380.26c0-34.35.06-68.71-.09-103.06a4.27,4.27,0,0,1,4.29-4.28q41.54.24,83.08,0c3.82,0,4.27,1.17,3.62,6.58l0,16.83c.72,5.25-.13,6-3.52,6-17.77-.13-35.53,0-53.3-.13-2.63,0-3.53.49-3.51,3.34q.21,28.41,0,56.82a3,3,0,0,0,3,3l47-.12c2.86,0,3.67.65,3.46,3.91a134.37,134.37,0,0,0-.07,19.76c.29,3.43-.49,4.09-3.22,4.07-15.55-.1-31.1,0-46.64-.13-3.07,0-3.59.91-3.57,3.71q.18,29.19,0,58.38c0,2.81.49,3.72,3.55,3.69,18-.17,36,0,54.08-.17,3.21,0,3.84,1,3.76,3.92-.2,7.57-.13,15.15,0,22.72,0,2-.52,2.63-2.6,2.63-28.87-.07-57.74-.11-86.61,0-3.32,0-2.76-1.76-2.76-3.66Z" transform="translate(-64.34 -269.67)"/><path class="cls-3" d="M1600,273c30.79-1.19,59.13,3.8,66.15,38.32,5,26.06,4.65,65.56-22.83,79-2.61,1.31-2,2.75-1.29,4.7q15.12,44.19,30.19,88.41c1.46,4.26,1.45,4.27-3.06,4.27-8.1,0-16.2-.1-24.29.06-2.39,0-3.4-.79-4.11-3q-18.06-57-36.33-114c-.87-2.72-.37-3.3,2.38-3.26,12.75.85,27.51-.27,30.49-15.34a94,94,0,0,0,0-34.64c-1.71-9.1-8.6-14.74-17.94-15.07-10.31-.36-20.63-.39-30.94-.22-3.53.05-5.32-.79-6.32-4.42C1574,266.23,1565.54,274,1600,273Z" transform="translate(-64.34 -269.67)"/><text class="cls-5" transform="translate(0 486.18)">KI<tspan class="cls-6" x="72.63" y="0">S</tspan><tspan class="cls-7" x="114.43" y="0">SMEPR</tspan><tspan class="cls-8" x="348.59" y="0">E</tspan><tspan class="cls-6" x="390.67" y="0">S</tspan><tspan class="cls-7" x="432.47" y="0">S@</tspan><tspan class="cls-9" x="531.56" y="0">A</tspan><tspan class="cls-7" x="576.81" y="0">V-</tspan><tspan class="cls-8" x="667.2" y="0">Y</tspan><tspan x="715.4" y="0">ED</tspan></text></svg>